<svg xmlns="http://www.w3.org/2000/svg" width="720" height="616" viewBox="0 0 720 616" role="img" aria-labelledby="t-pass-rates t-pass-rates-d" font-family="system-ui, -apple-system, 'Segoe UI', Roboto, Helvetica, Arial, sans-serif">
<title id="t-pass-rates">Pass rate by arm, counted four ways</title>
<desc id="t-pass-rates-d">How often did each arm solve a task, and how sure can we be?</desc>
<rect width="720" height="616" rx="8" fill="#1a1a19" stroke="#2c2c2a"/>
<text x="18.0" y="32.0" font-size="15" fill="#ffffff" font-weight="600">Pass rate by arm, counted four ways</text>
<circle cx="25.0" cy="50.0" r="5" fill="#3987e5"/>
<text x="40.0" y="54.0" font-size="12" fill="#c3c2b7">A. Theseus plain</text>
<circle cx="164.3" cy="50.0" r="5" fill="#199e70"/>
<text x="179.3" y="54.0" font-size="12" fill="#c3c2b7">B. Theseus + paragraph</text>
<circle cx="347.7" cy="50.0" r="5" fill="#d95926"/>
<text x="362.7" y="54.0" font-size="12" fill="#c3c2b7">C. Claude Code</text>
<line x1="175.4" y1="72.0" x2="175.4" y2="522.0" stroke="#2c2c2a" stroke-width="1"/>
<line x1="305.0" y1="72.0" x2="305.0" y2="522.0" stroke="#2c2c2a" stroke-width="1"/>
<line x1="434.7" y1="72.0" x2="434.7" y2="522.0" stroke="#2c2c2a" stroke-width="1"/>
<line x1="564.3" y1="72.0" x2="564.3" y2="522.0" stroke="#2c2c2a" stroke-width="1"/>
<text x="18.0" y="89.0" font-size="12" fill="#ffffff" stroke="#1a1a19" stroke-width="3" stroke-linejoin="round" paint-order="stroke" font-weight="600">Per trial (n = 178)</text>
<text x="18.0" y="201.0" font-size="12" fill="#ffffff" stroke="#1a1a19" stroke-width="3" stroke-linejoin="round" paint-order="stroke" font-weight="600">Per task (n = 89)</text>
<text x="18.0" y="313.0" font-size="12" fill="#ffffff" stroke="#1a1a19" stroke-width="3" stroke-linejoin="round" paint-order="stroke" font-weight="600">Both attempts (n = 89)</text>
<text x="18.0" y="425.0" font-size="12" fill="#ffffff" stroke="#1a1a19" stroke-width="3" stroke-linejoin="round" paint-order="stroke" font-weight="600">Either attempt (n = 89)</text>
<text x="161.4" y="116.0" font-size="12" fill="#ffffff" text-anchor="end">A. Theseus plain</text>
<g><title>A. Theseus plain: 71.9%  [64.9%, 78.0%] (128 of 178 trials)</title>
<line x1="336.8" y1="112.0" x2="421.7" y2="112.0" stroke="#3987e5" stroke-width="2" stroke-linecap="round"/>
<line x1="336.8" y1="107.0" x2="336.8" y2="117.0" stroke="#3987e5" stroke-width="1.5" stroke-linecap="round"/>
<line x1="421.7" y1="107.0" x2="421.7" y2="117.0" stroke="#3987e5" stroke-width="1.5" stroke-linecap="round"/>
<circle cx="382.2" cy="112.0" r="12" fill="transparent"/>
<circle cx="382.2" cy="112.0" r="5" fill="#3987e5" stroke="#1a1a19" stroke-width="2"/>
</g>
<text x="578.3" y="116.0" font-size="11" fill="#c3c2b7" style="font-variant-numeric: tabular-nums">71.9%  [64.9%, 78.0%]</text>
<text x="161.4" y="144.0" font-size="12" fill="#ffffff" text-anchor="end">B. Theseus + paragraph</text>
<g><title>B. Theseus + paragraph: 73.6%  [66.7%, 79.5%] (131 of 178 trials)</title>
<line x1="348.3" y1="140.0" x2="431.6" y2="140.0" stroke="#199e70" stroke-width="2" stroke-linecap="round"/>
<line x1="348.3" y1="135.0" x2="348.3" y2="145.0" stroke="#199e70" stroke-width="1.5" stroke-linecap="round"/>
<line x1="431.6" y1="135.0" x2="431.6" y2="145.0" stroke="#199e70" stroke-width="1.5" stroke-linecap="round"/>
<circle cx="393.2" cy="140.0" r="12" fill="transparent"/>
<circle cx="393.2" cy="140.0" r="5" fill="#199e70" stroke="#1a1a19" stroke-width="2"/>
</g>
<text x="578.3" y="144.0" font-size="11" fill="#c3c2b7" style="font-variant-numeric: tabular-nums">73.6%  [66.7%, 79.5%]</text>
<text x="161.4" y="172.0" font-size="12" fill="#ffffff" text-anchor="end">C. Claude Code</text>
<g><title>C. Claude Code: 81.5%  [75.1%, 86.5%] (145 of 178 trials)</title>
<line x1="403.0" y1="168.0" x2="476.7" y2="168.0" stroke="#d95926" stroke-width="2" stroke-linecap="round"/>
<line x1="403.0" y1="163.0" x2="403.0" y2="173.0" stroke="#d95926" stroke-width="1.5" stroke-linecap="round"/>
<line x1="476.7" y1="163.0" x2="476.7" y2="173.0" stroke="#d95926" stroke-width="1.5" stroke-linecap="round"/>
<circle cx="444.2" cy="168.0" r="12" fill="transparent"/>
<circle cx="444.2" cy="168.0" r="5" fill="#d95926" stroke="#1a1a19" stroke-width="2"/>
</g>
<text x="578.3" y="172.0" font-size="11" fill="#c3c2b7" style="font-variant-numeric: tabular-nums">81.5%  [75.1%, 86.5%]</text>
<text x="161.4" y="228.0" font-size="12" fill="#ffffff" text-anchor="end">A. Theseus plain</text>
<g><title>A. Theseus plain: 71.9%  [62.9%, 80.3%] (resampling whole tasks, so a task's two attempts move together)</title>
<line x1="324.0" y1="224.0" x2="436.9" y2="224.0" stroke="#3987e5" stroke-width="2" stroke-linecap="round"/>
<line x1="324.0" y1="219.0" x2="324.0" y2="229.0" stroke="#3987e5" stroke-width="1.5" stroke-linecap="round"/>
<line x1="436.9" y1="219.0" x2="436.9" y2="229.0" stroke="#3987e5" stroke-width="1.5" stroke-linecap="round"/>
<circle cx="382.2" cy="224.0" r="12" fill="transparent"/>
<circle cx="382.2" cy="224.0" r="5" fill="#3987e5" stroke="#1a1a19" stroke-width="2"/>
</g>
<text x="578.3" y="228.0" font-size="11" fill="#c3c2b7" style="font-variant-numeric: tabular-nums">71.9%  [62.9%, 80.3%]</text>
<text x="161.4" y="256.0" font-size="12" fill="#ffffff" text-anchor="end">B. Theseus + paragraph</text>
<g><title>B. Theseus + paragraph: 73.6%  [65.2%, 82.0%] (resampling whole tasks, so a task's two attempts move together)</title>
<line x1="338.5" y1="252.0" x2="447.8" y2="252.0" stroke="#199e70" stroke-width="2" stroke-linecap="round"/>
<line x1="338.5" y1="247.0" x2="338.5" y2="257.0" stroke="#199e70" stroke-width="1.5" stroke-linecap="round"/>
<line x1="447.8" y1="247.0" x2="447.8" y2="257.0" stroke="#199e70" stroke-width="1.5" stroke-linecap="round"/>
<circle cx="393.2" cy="252.0" r="12" fill="transparent"/>
<circle cx="393.2" cy="252.0" r="5" fill="#199e70" stroke="#1a1a19" stroke-width="2"/>
</g>
<text x="578.3" y="256.0" font-size="11" fill="#c3c2b7" style="font-variant-numeric: tabular-nums">73.6%  [65.2%, 82.0%]</text>
<text x="161.4" y="284.0" font-size="12" fill="#ffffff" text-anchor="end">C. Claude Code</text>
<g><title>C. Claude Code: 81.5%  [73.6%, 88.8%] (resampling whole tasks, so a task's two attempts move together)</title>
<line x1="393.2" y1="280.0" x2="491.5" y2="280.0" stroke="#d95926" stroke-width="2" stroke-linecap="round"/>
<line x1="393.2" y1="275.0" x2="393.2" y2="285.0" stroke="#d95926" stroke-width="1.5" stroke-linecap="round"/>
<line x1="491.5" y1="275.0" x2="491.5" y2="285.0" stroke="#d95926" stroke-width="1.5" stroke-linecap="round"/>
<circle cx="444.2" cy="280.0" r="12" fill="transparent"/>
<circle cx="444.2" cy="280.0" r="5" fill="#d95926" stroke="#1a1a19" stroke-width="2"/>
</g>
<text x="578.3" y="284.0" font-size="11" fill="#c3c2b7" style="font-variant-numeric: tabular-nums">81.5%  [73.6%, 88.8%]</text>
<text x="161.4" y="340.0" font-size="12" fill="#ffffff" text-anchor="end">A. Theseus plain</text>
<g><title>A. Theseus plain: 66.3%  [56.0%, 75.3%] (59 of 89 tasks)</title>
<line x1="279.0" y1="336.0" x2="403.9" y2="336.0" stroke="#3987e5" stroke-width="2" stroke-linecap="round"/>
<line x1="279.0" y1="331.0" x2="279.0" y2="341.0" stroke="#3987e5" stroke-width="1.5" stroke-linecap="round"/>
<line x1="403.9" y1="331.0" x2="403.9" y2="341.0" stroke="#3987e5" stroke-width="1.5" stroke-linecap="round"/>
<circle cx="345.8" cy="336.0" r="12" fill="transparent"/>
<circle cx="345.8" cy="336.0" r="5" fill="#3987e5" stroke="#1a1a19" stroke-width="2"/>
</g>
<text x="578.3" y="340.0" font-size="11" fill="#c3c2b7" style="font-variant-numeric: tabular-nums">66.3%  [56.0%, 75.3%]</text>
<text x="161.4" y="368.0" font-size="12" fill="#ffffff" text-anchor="end">B. Theseus + paragraph</text>
<g><title>B. Theseus + paragraph: 67.4%  [57.1%, 76.3%] (60 of 89 tasks)</title>
<line x1="286.5" y1="364.0" x2="410.4" y2="364.0" stroke="#199e70" stroke-width="2" stroke-linecap="round"/>
<line x1="286.5" y1="359.0" x2="286.5" y2="369.0" stroke="#199e70" stroke-width="1.5" stroke-linecap="round"/>
<line x1="410.4" y1="359.0" x2="410.4" y2="369.0" stroke="#199e70" stroke-width="1.5" stroke-linecap="round"/>
<circle cx="353.1" cy="364.0" r="12" fill="transparent"/>
<circle cx="353.1" cy="364.0" r="5" fill="#199e70" stroke="#1a1a19" stroke-width="2"/>
</g>
<text x="578.3" y="368.0" font-size="11" fill="#c3c2b7" style="font-variant-numeric: tabular-nums">67.4%  [57.1%, 76.3%]</text>
<text x="161.4" y="396.0" font-size="12" fill="#ffffff" text-anchor="end">C. Claude Code</text>
<g><title>C. Claude Code: 76.4%  [66.6%, 84.0%] (68 of 89 tasks)</title>
<line x1="347.9" y1="392.0" x2="460.7" y2="392.0" stroke="#d95926" stroke-width="2" stroke-linecap="round"/>
<line x1="347.9" y1="387.0" x2="347.9" y2="397.0" stroke="#d95926" stroke-width="1.5" stroke-linecap="round"/>
<line x1="460.7" y1="387.0" x2="460.7" y2="397.0" stroke="#d95926" stroke-width="1.5" stroke-linecap="round"/>
<circle cx="411.4" cy="392.0" r="12" fill="transparent"/>
<circle cx="411.4" cy="392.0" r="5" fill="#d95926" stroke="#1a1a19" stroke-width="2"/>
</g>
<text x="578.3" y="396.0" font-size="11" fill="#c3c2b7" style="font-variant-numeric: tabular-nums">76.4%  [66.6%, 84.0%]</text>
<text x="161.4" y="452.0" font-size="12" fill="#ffffff" text-anchor="end">A. Theseus plain</text>
<g><title>A. Theseus plain: 77.5%  [67.8%, 85.0%] (69 of 89 tasks)</title>
<line x1="355.8" y1="448.0" x2="466.8" y2="448.0" stroke="#3987e5" stroke-width="2" stroke-linecap="round"/>
<line x1="355.8" y1="443.0" x2="355.8" y2="453.0" stroke="#3987e5" stroke-width="1.5" stroke-linecap="round"/>
<line x1="466.8" y1="443.0" x2="466.8" y2="453.0" stroke="#3987e5" stroke-width="1.5" stroke-linecap="round"/>
<circle cx="418.7" cy="448.0" r="12" fill="transparent"/>
<circle cx="418.7" cy="448.0" r="5" fill="#3987e5" stroke="#1a1a19" stroke-width="2"/>
</g>
<text x="578.3" y="452.0" font-size="11" fill="#c3c2b7" style="font-variant-numeric: tabular-nums">77.5%  [67.8%, 85.0%]</text>
<text x="161.4" y="480.0" font-size="12" fill="#ffffff" text-anchor="end">B. Theseus + paragraph</text>
<g><title>B. Theseus + paragraph: 79.8%  [70.3%, 86.8%] (71 of 89 tasks)</title>
<line x1="371.7" y1="476.0" x2="478.8" y2="476.0" stroke="#199e70" stroke-width="2" stroke-linecap="round"/>
<line x1="371.7" y1="471.0" x2="371.7" y2="481.0" stroke="#199e70" stroke-width="1.5" stroke-linecap="round"/>
<line x1="478.8" y1="471.0" x2="478.8" y2="481.0" stroke="#199e70" stroke-width="1.5" stroke-linecap="round"/>
<circle cx="433.2" cy="476.0" r="12" fill="transparent"/>
<circle cx="433.2" cy="476.0" r="5" fill="#199e70" stroke="#1a1a19" stroke-width="2"/>
</g>
<text x="578.3" y="480.0" font-size="11" fill="#c3c2b7" style="font-variant-numeric: tabular-nums">79.8%  [70.3%, 86.8%]</text>
<text x="161.4" y="508.0" font-size="12" fill="#ffffff" text-anchor="end">C. Claude Code</text>
<g><title>C. Claude Code: 86.5%  [77.9%, 92.1%] (77 of 89 tasks)</title>
<line x1="421.1" y1="504.0" x2="513.2" y2="504.0" stroke="#d95926" stroke-width="2" stroke-linecap="round"/>
<line x1="421.1" y1="499.0" x2="421.1" y2="509.0" stroke="#d95926" stroke-width="1.5" stroke-linecap="round"/>
<line x1="513.2" y1="499.0" x2="513.2" y2="509.0" stroke="#d95926" stroke-width="1.5" stroke-linecap="round"/>
<circle cx="476.9" cy="504.0" r="12" fill="transparent"/>
<circle cx="476.9" cy="504.0" r="5" fill="#d95926" stroke="#1a1a19" stroke-width="2"/>
</g>
<text x="578.3" y="508.0" font-size="11" fill="#c3c2b7" style="font-variant-numeric: tabular-nums">86.5%  [77.9%, 92.1%]</text>
<line x1="175.4" y1="522.0" x2="564.3" y2="522.0" stroke="#383835" stroke-width="1"/>
<text x="175.4" y="538.0" font-size="11" fill="#c3c2b7" text-anchor="middle" style="font-variant-numeric: tabular-nums">40%</text>
<text x="305.0" y="538.0" font-size="11" fill="#c3c2b7" text-anchor="middle" style="font-variant-numeric: tabular-nums">60%</text>
<text x="434.7" y="538.0" font-size="11" fill="#c3c2b7" text-anchor="middle" style="font-variant-numeric: tabular-nums">80%</text>
<text x="564.3" y="538.0" font-size="11" fill="#c3c2b7" text-anchor="middle" style="font-variant-numeric: tabular-nums">100%</text>
<text x="369.9" y="556.0" font-size="12" fill="#c3c2b7" text-anchor="middle">share solved</text>
<text x="18.0" y="578.0" font-size="11" fill="#c3c2b7">Per trial and both/either: Wilson 95% intervals. Per task: a task's mean over its two attempts, bootstrap 95% over tasks. 89</text>
<text x="18.0" y="593.0" font-size="11" fill="#c3c2b7">tasks x 2 attempts an arm, Claude Sonnet 5.5.</text>
</svg>
